<?xml version="1.0" encoding="UTF-8"?>
<svg version="1.1" xmlns="http://www.w3.org/2000/svg" width="512" height="512">
<path d="M0 0 C1.00019165 0.00337372 2.0003833 0.00674744 3.03088379 0.01022339 C28.83664003 0.13575575 52.72641857 3.85620428 77.4375 11.4375 C78.31809082 11.70401367 79.19868164 11.97052734 80.10595703 12.24511719 C118.07824345 23.95942424 150.59315792 45.84025702 179.375 72.6875 C180.07302734 73.33686523 180.77105469 73.98623047 181.49023438 74.65527344 C194.50883581 86.94368486 205.61296199 101.51532434 215.4375 116.4375 C216.40042969 117.88576172 216.40042969 117.88576172 217.3828125 119.36328125 C240.02264835 154.69792385 255.31258301 199.30505223 255.67578125 241.5 C255.6855751 242.44087967 255.69536896 243.38175934 255.70545959 244.35115051 C255.86871831 264.08879387 255.88911147 283.11353577 251.4375 302.4375 C250.98563313 304.54035514 250.53381178 306.64322006 250.08203125 308.74609375 C235.07098841 376.37770217 193.8729347 433.71761434 135.66894531 471.03417969 C77.29417508 507.74514023 7.31296211 517.62360635 -59.5625 502.4375 C-77.6489243 498.08947546 -95.98297009 492.21221859 -112.15161133 482.87548828 C-120.69219476 478.19942757 -129.16516169 480.78553959 -138.046875 483.2265625 C-139.15653122 483.52176788 -140.26618744 483.81697327 -141.4094696 484.12112427 C-145.0466745 485.09122817 -148.67949467 486.07679697 -152.3125 487.0625 C-154.8448379 487.74101293 -157.37747582 488.41840703 -159.91040039 489.09472656 C-164.4939014 490.31920288 -169.07637144 491.54740905 -173.65763569 492.78022766 C-182.01846974 495.02958783 -190.38779434 497.24510329 -198.76171875 499.4453125 C-199.96976166 499.76291534 -201.17780457 500.08051819 -202.42245483 500.40774536 C-207.08430596 501.63317404 -211.74627293 502.85816147 -216.4083252 504.08282471 C-219.60470901 504.92326993 -222.8004753 505.76602496 -225.99609375 506.609375 C-227.38630989 506.97411423 -227.38630989 506.97411423 -228.80461121 507.34622192 C-233.99986764 508.71938991 -239.13367046 510.20474179 -244.24598694 511.86236572 C-248.06541121 512.81063658 -251.64680324 512.6269692 -255.5625 512.4375 C-257.14326428 509.27597144 -255.65455183 507.10913146 -254.5625 503.8125 C-254.08903355 502.34964031 -253.61781751 500.886051 -253.1484375 499.421875 C-252.8915918 498.62201172 -252.63474609 497.82214844 -252.37011719 496.99804688 C-248.362469 484.29181526 -244.79683211 471.44167683 -241.36328125 458.5703125 C-238.91096889 449.41682533 -236.42639688 440.27287005 -233.91080475 431.13656998 C-232.84742627 427.27120135 -231.78880773 423.40452591 -230.72993851 419.53792 C-229.82840407 416.24736169 -228.92390964 412.95766342 -228.01391602 409.66943359 C-226.93972219 405.78709245 -225.87779546 401.90148628 -224.81640625 398.015625 C-224.48838516 396.83760315 -224.16036407 395.6595813 -223.82240295 394.44586182 C-223.52466476 393.34901062 -223.22692657 392.25215942 -222.92016602 391.12207031 C-222.65704117 390.16568665 -222.39391632 389.20930298 -222.12281799 388.22393799 C-220.85053282 381.89691695 -221.96108936 377.91608595 -225 372.375 C-241.58244909 340.55492761 -250.53766364 307.12733971 -253.5625 271.4375 C-253.69446777 269.89473389 -253.69446777 269.89473389 -253.82910156 268.32080078 C-258.54301217 208.38543126 -237.70524326 145.45445846 -200.5625 98.4375 C-199.8096875 97.47972656 -199.056875 96.52195312 -198.28125 95.53515625 C-193.69011632 89.80410068 -188.86195804 84.51614728 -183.5625 79.4375 C-180.96919334 76.90313213 -178.60139412 74.48750673 -176.375 71.625 C-175.776875 70.903125 -175.17875 70.18125 -174.5625 69.4375 C-173.9025 69.4375 -173.2425 69.4375 -172.5625 69.4375 C-172.5625 68.7775 -172.5625 68.1175 -172.5625 67.4375 C-171.01361498 66.02043498 -169.39488466 64.67940504 -167.75 63.375 C-163.34317533 59.86850706 -163.34317533 59.86850706 -159.015625 56.265625 C-146.10956905 45.28345317 -131.55844226 36.27201711 -116.5625 28.4375 C-115.81790527 28.04353027 -115.07331055 27.64956055 -114.30615234 27.24365234 C-92.39135569 15.7891191 -67.94455542 7.62334776 -43.5625 3.4375 C-42.85596283 3.31468658 -42.14942566 3.19187317 -41.42147827 3.06533813 C-27.56899513 0.7121551 -14.03792816 -0.09260583 0 0 Z " fill="#40C251" transform="translate(256.5625,-0.43750000000000006)"/>
<path d="M0 0 C1.00019165 0.00337372 2.0003833 0.00674744 3.03088379 0.01022339 C28.83664003 0.13575575 52.72641857 3.85620428 77.4375 11.4375 C78.31809082 11.70401367 79.19868164 11.97052734 80.10595703 12.24511719 C118.07824345 23.95942424 150.59315792 45.84025702 179.375 72.6875 C180.07302734 73.33686523 180.77105469 73.98623047 181.49023438 74.65527344 C194.50883581 86.94368486 205.61296199 101.51532434 215.4375 116.4375 C216.40042969 117.88576172 216.40042969 117.88576172 217.3828125 119.36328125 C240.02264835 154.69792385 255.31258301 199.30505223 255.67578125 241.5 C255.6855751 242.44087967 255.69536896 243.38175934 255.70545959 244.35115051 C255.86871831 264.08879387 255.88911147 283.11353577 251.4375 302.4375 C250.98563313 304.54035514 250.53381178 306.64322006 250.08203125 308.74609375 C235.07098841 376.37770217 193.8729347 433.71761434 135.66894531 471.03417969 C77.29417508 507.74514023 7.31296211 517.62360635 -59.5625 502.4375 C-77.6489243 498.08947546 -95.98297009 492.21221859 -112.15161133 482.87548828 C-120.69219476 478.19942757 -129.16516169 480.78553959 -138.046875 483.2265625 C-139.15653122 483.52176788 -140.26618744 483.81697327 -141.4094696 484.12112427 C-145.0466745 485.09122817 -148.67949467 486.07679697 -152.3125 487.0625 C-154.8448379 487.74101293 -157.37747582 488.41840703 -159.91040039 489.09472656 C-164.4939014 490.31920288 -169.07637144 491.54740905 -173.65763569 492.78022766 C-182.01846974 495.02958783 -190.38779434 497.24510329 -198.76171875 499.4453125 C-199.96976166 499.76291534 -201.17780457 500.08051819 -202.42245483 500.40774536 C-207.08430596 501.63317404 -211.74627293 502.85816147 -216.4083252 504.08282471 C-219.60470901 504.92326993 -222.8004753 505.76602496 -225.99609375 506.609375 C-227.38630989 506.97411423 -227.38630989 506.97411423 -228.80461121 507.34622192 C-233.99986764 508.71938991 -239.13367046 510.20474179 -244.24598694 511.86236572 C-248.06541121 512.81063658 -251.64680324 512.6269692 -255.5625 512.4375 C-257.14326428 509.27597144 -255.65455183 507.10913146 -254.5625 503.8125 C-254.08903355 502.34964031 -253.61781751 500.886051 -253.1484375 499.421875 C-252.8915918 498.62201172 -252.63474609 497.82214844 -252.37011719 496.99804688 C-248.362469 484.29181526 -244.79683211 471.44167683 -241.36328125 458.5703125 C-238.91096889 449.41682533 -236.42639688 440.27287005 -233.91080475 431.13656998 C-232.84742627 427.27120135 -231.78880773 423.40452591 -230.72993851 419.53792 C-229.82840407 416.24736169 -228.92390964 412.95766342 -228.01391602 409.66943359 C-226.93972219 405.78709245 -225.87779546 401.90148628 -224.81640625 398.015625 C-224.48838516 396.83760315 -224.16036407 395.6595813 -223.82240295 394.44586182 C-223.52466476 393.34901062 -223.22692657 392.25215942 -222.92016602 391.12207031 C-222.65704117 390.16568665 -222.39391632 389.20930298 -222.12281799 388.22393799 C-220.85053282 381.89691695 -221.96108936 377.91608595 -225 372.375 C-241.58244909 340.55492761 -250.53766364 307.12733971 -253.5625 271.4375 C-253.69446777 269.89473389 -253.69446777 269.89473389 -253.82910156 268.32080078 C-258.54301217 208.38543126 -237.70524326 145.45445846 -200.5625 98.4375 C-199.8096875 97.47972656 -199.056875 96.52195312 -198.28125 95.53515625 C-193.69011632 89.80410068 -188.86195804 84.51614728 -183.5625 79.4375 C-180.96919334 76.90313213 -178.60139412 74.48750673 -176.375 71.625 C-175.776875 70.903125 -175.17875 70.18125 -174.5625 69.4375 C-173.9025 69.4375 -173.2425 69.4375 -172.5625 69.4375 C-172.5625 68.7775 -172.5625 68.1175 -172.5625 67.4375 C-171.01361498 66.02043498 -169.39488466 64.67940504 -167.75 63.375 C-163.34317533 59.86850706 -163.34317533 59.86850706 -159.015625 56.265625 C-146.10956905 45.28345317 -131.55844226 36.27201711 -116.5625 28.4375 C-115.81790527 28.04353027 -115.07331055 27.64956055 -114.30615234 27.24365234 C-92.39135569 15.7891191 -67.94455542 7.62334776 -43.5625 3.4375 C-42.85596283 3.31468658 -42.14942566 3.19187317 -41.42147827 3.06533813 C-27.56899513 0.7121551 -14.03792816 -0.09260583 0 0 Z M-81.5625 59.4375 C-82.34625 59.77507324 -83.13 60.11264648 -83.9375 60.46044922 C-105.10164164 69.7240008 -124.32683737 82.38547494 -141.1796875 98.20703125 C-143.29851127 100.19038924 -145.46727551 102.0698994 -147.6875 103.9375 C-161.39386099 115.95479428 -172.49161878 131.72342154 -181.5625 147.4375 C-182.27194887 148.59856716 -182.98294301 149.75869123 -183.6953125 150.91796875 C-193.17359684 166.66384914 -200.40184182 184.5303535 -204.5625 202.4375 C-204.72943359 203.1397168 -204.89636719 203.84193359 -205.06835938 204.56542969 C-211.10746407 230.25887693 -213.27697913 257.33073118 -208.5625 283.4375 C-208.32280957 285.12182959 -208.08749884 286.80678556 -207.85546875 288.4921875 C-203.63100556 317.58499668 -192.5661086 346.02556554 -176.01171875 370.3515625 C-174.15006125 374.31573885 -174.56431505 376.20537649 -175.5625 380.4375 C-175.71195068 381.11103516 -175.86140137 381.78457031 -176.01538086 382.47851562 C-176.53832302 384.78703176 -177.10675785 387.08035467 -177.6875 389.375 C-177.90486816 390.23907471 -178.12223633 391.10314941 -178.34619141 391.9934082 C-180.59081717 400.77404008 -183.1494676 409.45734304 -185.71484375 418.1484375 C-187.68701595 424.83667366 -189.60518258 431.53947156 -191.5 438.25 C-191.95995361 439.86104614 -191.95995361 439.86104614 -192.42919922 441.50463867 C-192.70908691 442.49955322 -192.98897461 443.49446777 -193.27734375 444.51953125 C-193.52605225 445.39843018 -193.77476074 446.2773291 -194.03100586 447.18286133 C-194.67722233 449.53808798 -194.67722233 449.53808798 -194.5625 452.4375 C-193.5945752 452.19515625 -192.62665039 451.9528125 -191.62939453 451.703125 C-185.24630552 450.10576767 -178.86286661 448.50997602 -172.47576904 446.92871094 C-169.80105003 446.26634783 -167.12682753 445.60199197 -164.45263672 444.9375 C-163.10583891 444.60332967 -161.75883215 444.27000039 -160.41162109 443.9375 C-150.2586873 441.43048186 -140.19470866 438.67861797 -130.15966797 435.73193359 C-128.2966564 435.18693453 -126.42975344 434.6552836 -124.5625 434.125 C-123.36625 433.77824219 -122.17 433.43148438 -120.9375 433.07421875 C-113.8716343 431.74119085 -109.74166815 434.27448866 -104 437.9375 C-61.98159901 463.61669928 -11.56286512 469.85306115 36.4375 462.4375 C37.14567871 462.33066895 37.85385742 462.22383789 38.58349609 462.11376953 C57.28981282 459.18142799 75.49809805 452.77500736 92.4375 444.4375 C93.2104541 444.06254395 93.9834082 443.68758789 94.77978516 443.30126953 C112.00736502 434.8717975 127.14323377 424.17676042 141.4375 411.4375 C142.23244873 410.73512207 142.23244873 410.73512207 143.04345703 410.01855469 C149.26732405 404.5033551 155.17640063 398.89677935 160.4375 392.4375 C161.3266959 391.38400737 162.2160316 390.33063272 163.10546875 389.27734375 C178.35837682 370.97033494 189.56743727 350.48594166 198.4375 328.4375 C198.86804688 327.37789063 199.29859375 326.31828125 199.7421875 325.2265625 C218.89359519 275.14741569 214.97982178 216.94909946 193.828125 168.265625 C182.59866562 143.54935365 167.2565235 122.82044038 148.4375 103.4375 C147.86290039 102.84171143 147.28830078 102.24592285 146.69628906 101.63208008 C142.91004061 97.76541852 138.97875734 94.29331888 134.6875 91 C134.07753174 90.52828369 133.46756348 90.05656738 132.83911133 89.57055664 C131.04299244 88.18699299 129.24051284 86.81205883 127.4375 85.4375 C126.52871094 84.73367187 125.61992187 84.02984375 124.68359375 83.3046875 C111.7020002 73.51398946 97.32986161 65.87671199 82.4375 59.4375 C81.71981445 59.12683594 81.00212891 58.81617188 80.26269531 58.49609375 C63.02180216 51.15431475 44.98784571 46.89797805 26.4375 44.4375 C25.34949097 44.29284302 25.34949097 44.29284302 24.23950195 44.14526367 C-11.17506285 40.018403 -48.8437614 45.282021 -81.5625 59.4375 Z " fill="#F8F8F8" transform="translate(256.5625,-0.43750000000000006)"/>
<path d="M0 0 C1.66579102 -0.03577148 1.66579102 -0.03577148 3.36523438 -0.07226562 C4.44224609 -0.07033203 5.51925781 -0.06839844 6.62890625 -0.06640625 C7.60029541 -0.06713135 8.57168457 -0.06785645 9.57250977 -0.06860352 C14.6641855 1.05299698 17.51929783 4.13913122 20.24047852 8.35742188 C20.73990967 9.40478516 21.23934082 10.45214844 21.75390625 11.53125 C22.03843155 12.12570923 22.32295685 12.72016846 22.61610413 13.3326416 C26.45268829 21.49958128 29.84886032 29.86994979 33.22875977 38.23339844 C34.38623126 41.09022052 35.56090697 43.9395862 36.73632812 46.7890625 C37.48021612 48.61936549 38.22309237 50.45008008 38.96484375 52.28125 C39.48968605 53.54696838 39.48968605 53.54696838 40.02513123 54.83825684 C42.12768563 60.10015703 43.51911915 64.44605396 41.58203125 70.02734375 C37.10360793 78.34066328 31.09720866 85.08819891 24.76269531 92.01953125 C22.43369056 94.73126855 21.43310218 96.05800718 21.46484375 99.69921875 C22.7240107 104.70048828 25.06584936 108.18690471 28 112.375 C28.54648193 113.17180176 29.09296387 113.96860352 29.65600586 114.78955078 C49.88071012 144.01924127 78.08905424 169.34757853 112.4375 180.5625 C115.49347153 181.18251278 115.49347153 181.18251278 118.4375 180.5625 C121.1234971 178.40309764 121.1234971 178.40309764 123.4375 175.5625 C124.58798828 174.3559375 124.58798828 174.3559375 125.76171875 173.125 C130.87018928 167.58589807 135.61379809 161.92180328 140.12573242 155.890625 C145.49565132 148.72629977 145.49565132 148.72629977 149.3125 148.0625 C161.55155327 148.71466423 174.77348886 157.37115925 185.57006836 162.63720703 C188.51917603 164.07182836 191.47704898 165.48720821 194.43554688 166.90234375 C196.32348027 167.81915281 198.21087049 168.73708144 200.09765625 169.65625 C200.97680191 170.07410767 201.85594757 170.49196533 202.76173401 170.92248535 C207.35853002 173.19058678 210.64525425 175.07858451 213.4375 179.5625 C215.62637532 189.22694102 211.88042514 202.99130447 207.4375 211.5625 C204.75166273 215.25895907 201.74506229 218.41769077 198.4375 221.5625 C197.70789063 222.26246094 196.97828125 222.96242188 196.2265625 223.68359375 C180.95023839 237.05689455 164.30904294 239.45741337 144.71289062 238.78466797 C136.34861914 238.21732397 128.42302528 236.00353681 120.4375 233.5625 C119.57705078 233.30549316 118.71660156 233.04848633 117.83007812 232.78369141 C84.151562 222.58623736 54.02057542 206.59410221 28.41015625 182.32421875 C26.41887686 180.44259926 24.37892105 178.66347173 22.2578125 176.9296875 C19.99541465 175.03077739 18.12990446 173.25286138 16.25 171 C13.36790419 167.60707321 10.36815936 164.36249105 7.3125 161.125 C-12.65475052 139.54409498 -31.1307287 113.50412247 -40.5625 85.5625 C-40.8925 84.58796875 -41.2225 83.6134375 -41.5625 82.609375 C-44.75309083 72.6080999 -44.80026333 63.0014424 -44.5625 52.5625 C-44.54574219 51.74523437 -44.52898437 50.92796875 -44.51171875 50.0859375 C-43.53733376 35.21960657 -35.33278278 21.35467072 -25.5625 10.5625 C-25.07644287 10.02230225 -24.59038574 9.48210449 -24.08959961 8.92553711 C-16.66435449 1.064605 -10.59458643 -0.1048969 0 0 Z " fill="#FEFEFE" transform="translate(172.5625,136.4375)"/>
</svg>
